<?xml version="1.0" standalone="no"?>
<!DOCTYPE svg PUBLIC "-//W3C//DTD SVG 20010904//EN"
 "http://www.w3.org/TR/2001/REC-SVG-20010904/DTD/svg10.dtd">
<svg version="1.0" xmlns="http://www.w3.org/2000/svg"
 width="901.000000pt" height="901.000000pt" viewBox="0 0 901.000000 901.000000"
 preserveAspectRatio="xMidYMid meet">
<metadata>
Created by potrace 1.14, written by Peter Selinger 2001-2017
</metadata>
<g transform="translate(0.000000,901.000000) scale(0.100000,-0.100000)"
fill="#000000" stroke="none">
<path d="M3145 8892 l0 -119 -57 -52 c-31 -28 -71 -77 -89 -109 l-32 -57 -16
37 c-21 46 -81 112 -153 166 -31 23 -59 42 -62 42 -2 0 4 -25 15 -55 30 -86
27 -228 -8 -329 l-27 -78 -72 -34 c-181 -84 -418 -112 -548 -64 -31 12 -59 20
-62 17 -12 -11 140 -152 226 -209 30 -20 79 -57 108 -82 29 -25 66 -53 83 -63
16 -9 29 -20 29 -24 0 -3 -33 -10 -72 -14 -40 -3 -76 -9 -81 -12 -4 -3 9 -13
30 -24 21 -10 55 -35 75 -55 36 -35 37 -37 24 -67 -16 -38 -55 -125 -67 -148
-4 -10 -20 -46 -35 -80 -42 -101 -183 -296 -257 -357 -18 -15 -34 -29 -37 -32
-3 -3 -20 -18 -38 -33 l-34 -27 51 0 c75 0 259 28 369 55 53 14 99 25 103 25
3 0 9 -37 13 -82 3 -46 10 -117 16 -158 17 -136 12 -317 -10 -404 -12 -43 -18
-81 -15 -84 8 -8 60 45 118 121 29 37 55 67 58 67 4 0 12 -52 20 -116 9 -86
10 -130 2 -168 -6 -28 -9 -53 -6 -56 3 -3 17 11 32 30 14 19 36 44 49 56 12
12 22 27 22 33 0 24 64 131 79 131 8 0 25 -10 38 -22 21 -19 23 -20 23 -4 0
25 -25 121 -66 254 l-35 113 10 137 c6 75 16 218 22 317 8 150 14 187 31 220
43 82 46 82 46 5 1 -113 28 -213 76 -283 22 -33 52 -67 65 -75 l23 -16 -20 40
c-55 107 -73 283 -44 420 11 51 26 104 33 120 24 49 101 98 222 138 167 56
166 56 160 73 -8 21 41 13 165 -26 51 -17 99 -28 107 -25 8 4 29 -6 47 -21
l32 -27 33 38 c18 22 47 60 64 87 33 49 55 63 43 25 -6 -19 -5 -20 7 -8 8 8
27 32 42 53 35 46 51 48 31 2 -13 -32 -19 -75 -10 -75 2 0 47 16 100 35 112
40 218 60 245 46 10 -6 60 -13 112 -17 67 -5 101 -12 117 -25 13 -10 60 -32
105 -50 175 -67 186 -76 223 -194 27 -84 27 -309 1 -375 -10 -25 -21 -54 -23
-65 l-5 -20 12 20 c7 11 18 26 25 32 7 7 22 39 35 70 25 67 37 223 21 291 -12
49 -4 52 41 18 18 -14 66 -42 107 -62 71 -37 74 -39 49 -48 l-26 -9 78 -111
c43 -61 95 -133 116 -161 40 -53 45 -63 89 -165 24 -56 92 -169 150 -247 16
-22 15 -23 -5 -23 -33 0 -25 -21 30 -83 48 -54 55 -77 24 -77 -29 0 -23 -18
22 -68 l46 -51 42 58 c61 82 90 103 134 95 20 -4 45 -14 55 -23 28 -24 81
-140 96 -209 10 -47 20 -68 49 -96 l37 -36 -17 82 c-9 46 -20 114 -24 152 -6
61 -5 68 9 63 25 -10 116 -20 116 -14 0 4 -22 27 -50 53 -54 51 -61 74 -39
143 27 84 25 82 69 75 22 -4 40 -4 40 -1 0 3 -12 19 -26 34 -47 50 -57 81 -55
167 1 44 4 82 6 84 2 2 32 -5 67 -16 68 -23 159 -40 122 -23 -34 15 -110 109
-143 176 -40 81 -105 280 -98 299 3 8 26 18 52 22 49 7 45 24 -6 24 -39 0 -65
28 -80 85 -14 56 -73 206 -93 239 -7 11 -25 43 -40 69 -24 42 -25 47 -8 38 10
-5 44 -38 76 -71 31 -34 56 -56 56 -49 0 26 -91 157 -142 205 -29 27 -97 83
-151 123 -72 55 -96 79 -91 90 12 31 44 247 44 301 l0 55 -29 -60 c-32 -66
-86 -145 -100 -145 -5 0 -7 17 -4 39 6 44 -13 254 -26 297 -5 16 -12 42 -15
57 l-7 28 -972 -4 -972 -3 -63 -22 c-35 -12 -95 -38 -133 -57 -39 -19 -73 -35
-77 -35 -4 0 -23 14 -42 31 -49 44 -116 89 -132 89 -10 0 -13 -27 -13 -118z
m675 -338 c-17 -49 -36 -106 -42 -126 -15 -54 -30 -36 -23 25 10 77 41 166 67
194 34 37 34 11 -2 -93z m825 -44 c-3 -5 -11 -10 -16 -10 -6 0 -53 -21 -104
-47 -94 -47 -129 -52 -84 -13 45 39 110 64 202 79 5 0 5 -3 2 -9z m-1370 -195
l7 -40 -20 20 c-25 23 -38 116 -26 174 7 34 8 32 19 -39 7 -41 15 -93 20 -115z
m-509 -256 c35 -6 73 -19 85 -30 l22 -19 -36 0 c-40 0 -121 25 -152 46 -19 13
-19 14 -1 14 11 0 48 -5 82 -11z"/>
<path d="M4625 7149 c-84 -60 -257 -149 -291 -149 -34 0 -30 -17 6 -25 39 -9
124 11 175 40 42 24 159 134 176 166 5 11 8 19 7 19 -2 -1 -34 -23 -73 -51z"/>
<path d="M3446 7074 c93 -85 217 -152 309 -168 l40 -7 -27 27 c-16 16 -55 36
-98 50 -39 12 -111 47 -160 78 -48 31 -91 56 -96 56 -4 0 10 -16 32 -36z"/>
<path d="M3385 6743 c-55 -13 -156 -46 -152 -50 3 -2 33 1 68 7 88 14 226 12
272 -4 65 -24 169 -104 195 -151 22 -41 20 -7 -2 42 -37 78 -89 130 -149 148
-47 14 -186 19 -232 8z"/>
<path d="M4820 6606 c-172 -95 -195 -111 -196 -134 -2 -28 2 -28 43 4 57 44
238 123 309 135 36 6 88 8 115 5 29 -4 49 -3 49 3 0 11 -77 27 -165 34 -58 5
-64 3 -155 -47z"/>
<path d="M3516 6601 c5 -23 2 -32 -14 -40 -29 -15 -52 -3 -52 27 l0 25 -24
-22 c-22 -21 -46 -80 -46 -116 0 -40 33 -126 60 -155 39 -42 59 -38 21 5 -36
42 -36 39 -14 76 20 34 43 45 43 21 0 -51 53 -44 65 8 6 26 9 28 26 20 10 -6
19 -20 19 -30 0 -11 7 -20 15 -20 18 0 21 74 4 134 -13 46 -59 96 -88 96 -17
0 -20 -5 -15 -29z"/>
<path d="M5846 6581 c-10 -11 -16 -26 -13 -33 3 -9 7 -7 13 7 4 11 12 23 18
27 6 4 8 9 5 13 -3 3 -14 -4 -23 -14z"/>
<path d="M5835 6360 c12 -41 27 -60 20 -25 -4 17 -11 35 -17 40 -7 7 -8 2 -3
-15z"/>
<path d="M5852 6250 c0 -14 2 -19 5 -12 2 6 2 18 0 25 -3 6 -5 1 -5 -13z"/>
<path d="M2801 6234 c0 -11 3 -14 6 -6 3 7 2 16 -1 19 -3 4 -6 -2 -5 -13z"/>
<path d="M5722 6215 c0 -16 2 -22 5 -12 2 9 2 23 0 30 -3 6 -5 -1 -5 -18z"/>
<path d="M5841 6144 c-6 -21 -9 -40 -6 -42 2 -2 8 13 14 34 6 21 9 40 6 42 -2
2 -8 -13 -14 -34z"/>
<path d="M2811 6124 c1 -21 5 -50 10 -64 5 -16 6 -4 2 35 -6 70 -13 86 -12 29z"/>
<path d="M3031 6115 c0 -11 4 -27 9 -35 9 -13 10 -13 9 0 0 8 -4 24 -9 35 l-9
20 0 -20z"/>
<path d="M5696 6095 c-9 -26 -7 -32 5 -12 6 10 9 21 6 23 -2 3 -7 -2 -11 -11z"/>
<path d="M3051 6055 c0 -16 24 -104 31 -110 3 -4 2 11 -3 32 -9 43 -28 94 -28
78z"/>
<path d="M2990 6014 c0 -9 50 -84 57 -84 6 0 -17 42 -38 69 -11 13 -19 20 -19
15z"/>
<path d="M5637 6006 c-9 -7 -17 -19 -17 -27 0 -9 8 -6 22 9 25 24 22 37 -5 18z"/>
<path d="M3095 5880 c3 -5 8 -10 11 -10 2 0 4 5 4 10 0 6 -5 10 -11 10 -5 0
-7 -4 -4 -10z"/>
<path d="M2940 5847 c0 -2 15 -16 33 -33 l32 -29 -29 33 c-28 30 -36 37 -36
29z"/>
<path d="M5522 5738 c-16 -40 -33 -84 -37 -98 -11 -36 -93 -237 -112 -274 -18
-35 -58 -91 -86 -119 -10 -10 -16 -21 -13 -24 3 -3 15 7 28 22 l23 27 -3 -144
c-2 -79 1 -163 7 -188 7 -33 7 -47 -2 -53 -8 -6 -5 -7 6 -3 10 3 20 6 22 6 2
0 1 15 -2 33 -6 37 44 220 58 212 4 -3 13 -30 20 -61 19 -86 31 -81 42 21 5
41 94 334 106 347 3 4 16 -21 29 -55 12 -34 33 -75 47 -92 l24 -30 -5 60 c-8
78 22 335 46 398 l19 48 -30 -6 c-31 -7 -129 20 -129 36 0 5 -6 9 -14 9 -8 0
-27 -31 -44 -72z"/>
<path d="M3166 5601 c-3 -4 3 -16 13 -25 17 -16 18 -15 14 9 -5 25 -17 32 -27
16z"/>
<path d="M4889 5383 c-25 -27 -25 -29 -8 -45 18 -17 19 -17 29 3 6 11 10 31 8
45 l-3 26 -26 -29z"/>
<path d="M3270 5347 c0 -10 70 -127 76 -127 9 0 -51 116 -66 125 -5 3 -10 4
-10 2z"/>
<path d="M4876 5275 c-9 -26 -7 -32 5 -12 6 10 9 21 6 23 -2 3 -7 -2 -11 -11z"/>
<path d="M3910 5172 c0 -4 9 -13 20 -20 22 -13 27 -3 8 16 -14 14 -28 16 -28
4z"/>
<path d="M6211 5173 c-1 -6 -4 -20 -7 -30 -5 -17 -5 -17 6 0 6 10 9 23 6 30
-3 9 -5 9 -5 0z"/>
<path d="M3510 5056 c0 -2 8 -10 18 -17 15 -13 16 -12 3 4 -13 16 -21 21 -21
13z"/>
<path d="M5537 4973 c-33 -5 -45 -30 -49 -100 -2 -43 -8 -54 -63 -113 -33 -36
-89 -98 -125 -139 -193 -219 -167 -199 -439 -333 -147 -73 -259 -122 -278
-122 -28 -1 -33 -6 -54 -56 -12 -30 -25 -58 -29 -63 -3 -4 -38 9 -76 29 -54
28 -70 33 -72 21 -5 -23 -169 -23 -216 0 -22 10 -40 13 -45 7 -18 -19 -64
-243 -70 -341 l-6 -103 45 0 c43 0 47 -2 58 -34 10 -27 82 -144 123 -199 3 -5
18 -5 32 -2 33 9 85 78 139 183 l39 77 -95 45 c-52 25 -127 59 -166 75 -40 17
-74 36 -77 43 -3 8 2 29 11 48 14 30 19 34 43 28 45 -11 213 -74 275 -104 l57
-28 28 55 c28 54 30 56 158 120 71 36 136 70 143 76 35 28 16 -16 -64 -150
-48 -81 -108 -186 -132 -233 -25 -47 -53 -94 -63 -105 -10 -12 -42 -55 -71
-97 -186 -270 -217 -314 -293 -418 -31 -41 -58 -82 -62 -90 -13 -29 -115 -175
-134 -191 -10 -9 -38 -44 -61 -77 -45 -64 -117 -154 -248 -312 -44 -52 -130
-156 -191 -230 -61 -74 -121 -144 -133 -155 -12 -11 -34 -37 -50 -58 -16 -22
-32 -35 -37 -30 -14 14 -23 625 -10 738 6 55 16 150 21 210 10 108 27 221 56
360 7 39 17 90 20 115 14 99 107 385 135 415 5 5 9 -3 10 -20 3 -87 26 -190
45 -206 24 -19 152 35 284 120 45 29 67 38 75 31 30 -25 40 -1 43 98 3 84 37
284 57 334 6 15 3 16 -31 7 -39 -11 -122 4 -136 25 -4 6 -29 -4 -65 -26 -32
-20 -59 -35 -61 -34 -6 6 90 240 143 349 12 25 12 27 -6 27 -12 0 -67 -46
-134 -110 -62 -60 -121 -110 -130 -110 -17 0 -369 -192 -498 -271 -76 -47 -80
-49 -175 -54 -245 -14 -598 -36 -713 -46 -157 -13 -342 -49 -367 -73 -42 -37
-112 -247 -157 -466 -10 -47 -28 -132 -40 -190 -39 -177 -47 -223 -52 -287 -6
-75 -32 -104 -114 -131 -45 -14 -57 -23 -72 -54 -10 -21 -21 -62 -24 -92 -5
-52 -8 -56 -72 -109 -110 -92 -194 -186 -396 -444 -66 -84 -137 -174 -158
-200 -20 -27 -90 -121 -155 -211 -326 -452 -388 -529 -508 -630 l-104 -87 0
-437 0 -438 650 0 650 0 0 36 c0 66 -31 172 -76 260 -24 48 -43 88 -42 89 2 1
35 24 73 50 86 59 95 66 275 199 80 60 184 146 231 193 l86 85 6 -179 c4 -98
7 -245 7 -328 0 -153 7 -314 16 -372 l5 -33 64 0 65 0 0 113 c0 116 22 485 40
687 14 161 51 433 85 625 27 152 65 350 71 365 3 8 14 56 25 105 11 50 24 106
29 125 36 142 65 249 91 335 16 55 36 123 44 150 8 28 28 93 45 145 16 52 36
120 44 150 31 113 45 162 48 164 2 1 32 7 68 13 36 6 118 30 183 54 101 38
114 45 95 53 -83 35 -155 72 -164 85 -10 12 -3 27 34 76 26 33 58 74 73 90 37
42 118 138 127 150 47 64 229 275 316 365 61 63 130 136 154 163 24 26 47 47
53 47 8 0 -111 -147 -283 -349 -35 -40 -90 -108 -123 -151 -33 -43 -94 -122
-136 -176 -42 -55 -86 -108 -98 -118 -11 -11 -21 -25 -21 -31 0 -15 112 -88
161 -105 34 -12 40 -11 124 34 85 44 119 55 128 39 3 -5 -5 -31 -16 -59 -20
-48 -23 -52 -57 -52 -41 -1 -97 -20 -280 -97 -74 -31 -171 -70 -215 -87 l-80
-29 -23 -62 c-13 -34 -34 -100 -47 -147 -13 -47 -41 -139 -64 -205 -72 -215
-120 -378 -140 -470 -11 -49 -29 -126 -41 -170 -52 -198 -162 -869 -190 -1165
-14 -139 -29 -429 -29 -562 l-1 -98 1085 0 1084 0 5 33 c3 17 8 84 11 147 3
63 16 169 29 235 14 66 38 190 55 275 16 85 39 196 50 245 10 50 28 133 39
185 28 128 187 711 236 860 13 41 40 129 61 195 20 66 63 203 95 305 33 102
68 218 79 259 l21 75 -78 81 c-99 104 -169 186 -217 255 -20 30 -60 75 -87
100 l-49 46 20 47 c32 73 55 67 137 -38 37 -47 70 -85 74 -85 3 0 40 11 81 25
110 38 336 105 352 105 20 0 35 -99 17 -110 -7 -4 -47 -15 -89 -25 -148 -34
-291 -78 -291 -90 0 -17 206 -222 253 -252 28 -18 37 -29 32 -41 -3 -9 -35
-105 -70 -212 -98 -298 -142 -430 -166 -490 -12 -30 -27 -75 -35 -100 -7 -25
-29 -94 -49 -155 -54 -164 -113 -373 -150 -530 -18 -77 -50 -210 -70 -295
-123 -524 -164 -767 -165 -962 l0 -88 964 0 c910 0 965 1 970 18 3 9 10 71 15
138 10 117 15 134 161 575 82 250 156 483 164 519 8 36 37 148 64 250 27 102
62 244 76 315 15 72 34 157 41 190 8 33 19 116 26 185 6 69 18 138 26 154 11
22 63 236 63 260 0 3 -32 -9 -72 -27 l-71 -31 -34 -76 c-68 -149 -72 -156
-114 -179 -22 -13 -70 -27 -106 -31 -52 -7 -70 -14 -87 -34 -35 -41 -153 -124
-241 -169 -67 -33 -106 -40 -153 -28 -77 21 -118 80 -227 326 -36 82 -75 165
-87 183 -59 95 -117 241 -144 358 -22 97 -24 373 -4 479 31 170 60 307 66 316
3 5 10 7 15 4 5 -4 9 24 9 67 1 164 38 238 220 438 115 127 143 160 179 213
17 26 36 47 40 47 21 0 54 118 58 212 7 117 2 141 -34 158 -48 22 -221 25
-304 5 -82 -20 -66 -28 -129 62 -44 63 -88 85 -153 76z m-1612 -1065 c2 -7 1
-28 -3 -47 l-8 -35 -104 -22 c-58 -12 -141 -34 -185 -48 -44 -14 -83 -22 -86
-18 -4 4 -10 34 -14 68 l-7 61 59 12 c177 38 340 51 348 29z"/>
<path d="M3780 4786 c50 -95 63 -129 72 -195 7 -44 15 -78 19 -76 15 10 49 96
49 125 0 38 12 38 56 -2 l35 -33 -21 -22 c-27 -30 -13 -29 24 2 l30 24 -18 56
c-19 60 -16 76 9 55 8 -7 15 -9 15 -4 0 5 -37 28 -83 51 -45 23 -118 63 -161
88 -44 25 -81 45 -83 45 -2 0 24 -51 57 -114z"/>
<path d="M4784 4855 c-18 -13 -18 -14 4 -8 12 3 25 9 28 14 8 14 -10 11 -32
-6z"/>
<path d="M4685 4795 c-25 -15 -33 -24 -22 -25 9 0 17 4 17 9 0 5 11 12 25 15
14 4 25 11 25 16 0 13 1 13 -45 -15z"/>
<path d="M6507 4623 c-46 -134 -57 -176 -36 -140 19 32 29 17 29 -44 0 -55 3
-63 27 -83 15 -11 43 -28 63 -37 20 -9 48 -31 63 -50 45 -56 80 -89 92 -89 6
0 45 -22 86 -49 40 -27 76 -48 78 -46 1 2 -13 39 -34 82 -20 43 -42 92 -50
108 -52 116 -72 151 -136 235 -39 52 -87 111 -106 131 -32 34 -35 40 -28 78 4
23 5 41 3 41 -2 0 -25 -62 -51 -137z"/>
<path d="M4534 4716 c-38 -18 -105 -50 -149 -70 l-79 -37 -70 31 c-88 39 -99
32 -13 -9 67 -32 101 -38 112 -21 3 6 14 10 23 10 18 0 229 103 246 120 17 17
2 12 -70 -24z"/>
<path d="M4983 4705 c-18 -8 -33 -16 -33 -19 0 -8 59 15 66 25 7 11 6 11 -33
-6z"/>
<path d="M4920 4670 c-9 -6 -10 -10 -3 -10 6 0 15 5 18 10 8 12 4 12 -15 0z"/>
<path d="M4854 4635 c-10 -8 -14 -14 -9 -15 15 0 40 18 34 24 -3 3 -14 -1 -25
-9z"/>
<path d="M4624 4494 c-18 -14 -18 -15 4 -4 12 6 22 13 22 15 0 8 -5 6 -26 -11z"/>
<path d="M4626 4365 c-3 -9 -6 -24 -5 -33 0 -9 5 -4 10 12 9 32 6 48 -5 21z"/>
<path d="M4021 4304 c0 -11 3 -14 6 -6 3 7 2 16 -1 19 -3 4 -6 -2 -5 -13z"/>
<path d="M4120 4253 c0 -13 5 -23 10 -23 13 0 13 11 0 30 -8 12 -10 11 -10 -7z"/>
<path d="M4572 4205 c-6 -14 -8 -25 -3 -25 8 0 23 41 17 47 -1 2 -8 -8 -14
-22z"/>
<path d="M4126 4158 c-24 -33 -19 -45 5 -14 12 15 19 29 16 32 -3 3 -12 -5
-21 -18z"/>
<path d="M6535 4030 c-17 -7 -14 -9 13 -9 20 -1 31 3 27 9 -7 12 -13 12 -40 0z"/>
<path d="M5652 3650 c0 -19 2 -27 5 -17 2 9 2 25 0 35 -3 9 -5 1 -5 -18z"/>
<path d="M5663 3505 c0 -22 2 -30 4 -17 2 12 2 30 0 40 -3 9 -5 -1 -4 -23z"/>
<path d="M5872 3393 c-5 -37 -6 -74 -2 -82 4 -8 11 19 15 63 9 97 1 110 -13
19z"/>
<path d="M5670 3399 c0 -9 7 -32 15 -50 13 -31 14 -32 14 -9 0 28 -28 86 -29
59z"/>
<path d="M5651 3334 c0 -11 3 -14 6 -6 3 7 2 16 -1 19 -3 4 -6 -2 -5 -13z"/>
<path d="M7012 2930 c0 -14 2 -19 5 -12 2 6 2 18 0 25 -3 6 -5 1 -5 -13z"/>
<path d="M5611 2884 c0 -11 3 -14 6 -6 3 7 2 16 -1 19 -3 4 -6 -2 -5 -13z"/>
<path d="M5620 2852 c0 -18 40 -95 46 -89 3 3 -6 27 -20 53 -14 27 -26 43 -26
36z"/>
<path d="M5688 2720 c9 -16 20 -30 24 -30 4 0 -1 13 -10 30 -9 16 -20 30 -24
30 -4 0 1 -13 10 -30z"/>
<path d="M5933 2480 c19 -16 37 -30 41 -30 3 0 14 -7 23 -15 19 -16 93 -71
127 -95 19 -14 20 -14 7 3 -14 18 -215 167 -225 167 -4 0 9 -13 27 -30z"/>
<path d="M5900 2445 c0 -5 5 -17 10 -25 5 -8 10 -10 10 -5 0 6 -5 17 -10 25
-5 8 -10 11 -10 5z"/>
<path d="M6187 2289 c7 -7 15 -10 18 -7 3 3 -2 9 -12 12 -14 6 -15 5 -6 -5z"/>
<path d="M5980 2275 c0 -5 5 -17 10 -25 5 -8 10 -10 10 -5 0 6 -5 17 -10 25
-5 8 -10 11 -10 5z"/>
<path d="M6220 2266 c0 -2 16 -14 36 -27 41 -25 38 -31 -41 -74 -33 -18 -41
-25 -23 -21 35 8 148 74 148 86 0 6 -10 10 -22 10 -13 1 -34 7 -48 15 -24 14
-50 19 -50 11z"/>
<path d="M3340 2021 c0 -5 5 -13 10 -16 6 -3 10 -2 10 4 0 5 -4 13 -10 16 -5
3 -10 2 -10 -4z"/>
</g>
</svg>
